<?xml version="1.0" encoding="iso-8859-1"?>
<!-- Uploaded to: SVG Repo, www.svgrepo.com, Generator: SVG Repo Mixer Tools -->
<svg fill="#000000" height="800px" width="800px" version="1.1" id="Layer_1" xmlns="http://www.w3.org/2000/svg" xmlns:xlink="http://www.w3.org/1999/xlink" 
	 viewBox="0 0 512 512" xml:space="preserve">
<g>
	<g>
		<path d="M503.332,88.293H8.668C3.881,88.293,0,92.174,0,96.961v302.808c0,4.787,3.881,8.668,8.668,8.668h352.294v6.602
			c0,3.26,1.83,6.245,4.735,7.725c1.241,0.632,2.589,0.943,3.932,0.943c1.801,0,3.59-0.559,5.1-1.659l20.327-14.787l20.333,14.781
			c2.637,1.916,6.128,2.191,9.031,0.712c2.906-1.479,4.734-4.464,4.734-7.724v-6.594h74.176c4.788,0,8.668-3.881,8.668-8.668V96.961
			C512,92.174,508.12,88.293,503.332,88.293z M482.405,105.629l-11.558,11.558H41.152l-11.558-11.558H482.405z M453.418,291.13
			c-0.962-1.425-2.05-3.04-2.351-3.964c-0.346-1.061-0.422-3.013-0.496-4.902c-0.17-4.341-0.383-9.743-3.821-14.468
			c-3.463-4.758-8.556-6.626-12.65-8.128c-1.753-0.644-3.567-1.308-4.431-1.938c-0.832-0.604-2.056-2.172-3.137-3.554
			c-2.702-3.457-6.065-7.759-11.726-9.596c-5.493-1.782-10.653-0.326-14.799,0.844c-1.854,0.524-3.772,1.063-4.949,1.063
			s-3.095-0.541-4.949-1.063c-4.15-1.171-9.313-2.625-14.799-0.844c-5.66,1.838-9.024,6.141-11.726,9.597
			c-1.082,1.382-2.307,2.949-3.138,3.554c-0.864,0.63-2.678,1.296-4.431,1.938c-4.094,1.501-9.187,3.371-12.65,8.128
			c-3.438,4.724-3.65,10.127-3.821,14.468c-0.073,1.887-0.15,3.841-0.496,4.902c-0.301,0.925-1.389,2.539-2.351,3.964
			c-2.468,3.656-5.537,8.205-5.537,14.232c0,6.028,3.07,10.578,5.537,14.233c0.962,1.425,2.051,3.04,2.351,3.964
			c0.346,1.061,0.422,3.014,0.496,4.903c0.17,4.341,0.383,9.743,3.821,14.468c3.463,4.757,8.556,6.626,12.65,8.128
			c1.753,0.644,3.565,1.308,4.431,1.938c0.157,0.114,0.333,0.273,0.514,0.448v8.762H46.23V134.524h419.54v227.684h-36.614v-8.762
			c0.183-0.177,0.358-0.335,0.516-0.45c0.866-0.629,2.678-1.294,4.431-1.938c4.092-1.501,9.186-3.371,12.647-8.127
			c3.44-4.725,3.651-10.128,3.822-14.47c0.074-1.887,0.15-3.839,0.495-4.899c0.301-0.925,1.39-2.54,2.352-3.965
			c2.468-3.656,5.537-8.206,5.537-14.233S455.886,294.786,453.418,291.13z M28.894,367.284l-11.558,11.558V117.887l11.558,11.558
			V367.284z M360.961,391.101H29.594l11.558-11.558h319.809V391.101z M411.819,398.016l-11.668-8.482
			c-3.039-2.209-7.154-2.209-10.195,0.002l-11.657,8.48v-31.198c0.818,0.109,1.627,0.165,2.422,0.165
			c3.442,0,6.638-0.901,9.388-1.677c1.854-0.524,3.774-1.063,4.95-1.063c1.177,0,3.095,0.541,4.949,1.063
			c3.385,0.955,7.448,2.1,11.811,1.52V398.016z M428.129,334.783c-2.737,1.004-5.839,2.143-8.66,4.197
			c-2.793,2.033-4.813,4.616-6.595,6.894c-0.985,1.26-2.615,3.346-3.397,3.769c-0.87,0.075-3.203-0.584-4.764-1.024
			c-2.85-0.803-6.079-1.714-9.655-1.714c-3.576,0-6.806,0.911-9.655,1.714c-1.563,0.44-3.9,1.093-4.763,1.024
			c-0.781-0.423-2.413-2.509-3.397-3.768c-1.782-2.279-3.801-4.862-6.594-6.894c-2.822-2.054-5.926-3.192-8.662-4.197
			c-1.486-0.545-3.949-1.449-4.593-2.051c-0.362-0.799-0.464-3.388-0.526-4.949c-0.114-2.923-0.245-6.235-1.328-9.575
			c-1.054-3.245-2.869-5.935-4.47-8.309c-0.94-1.392-2.511-3.72-2.572-4.522c0.061-0.828,1.632-3.155,2.572-4.547
			c1.602-2.374,3.416-5.063,4.469-8.309c1.084-3.34,1.216-6.653,1.329-9.575c0.062-1.561,0.164-4.15,0.526-4.949
			c0.643-0.602,3.107-1.506,4.593-2.051c2.737-1.004,5.839-2.143,8.661-4.197c2.793-2.033,4.813-4.616,6.595-6.894
			c0.985-1.26,2.617-3.347,3.397-3.769c0.865-0.074,3.201,0.584,4.763,1.024c2.85,0.804,6.08,1.715,9.655,1.715
			s6.805-0.911,9.655-1.715c1.563-0.44,3.89-1.098,4.764-1.024c0.781,0.422,2.412,2.508,3.396,3.768
			c1.782,2.279,3.8,4.862,6.595,6.895c2.822,2.054,5.924,3.192,8.661,4.195c1.485,0.546,3.949,1.449,4.593,2.052
			c0.362,0.797,0.463,3.388,0.526,4.949c0.114,2.922,0.245,6.235,1.329,9.575c1.053,3.245,2.867,5.934,4.469,8.308
			c0.94,1.392,2.511,3.72,2.572,4.524c-0.06,0.828-1.632,3.156-2.572,4.549c-1.602,2.373-3.416,5.061-4.47,8.308
			c-1.084,3.34-1.215,6.653-1.328,9.575c-0.061,1.563-0.163,4.151-0.526,4.948C432.081,333.334,429.615,334.239,428.129,334.783z
			 M429.155,391.101v-11.558h41.693l11.558,11.558H429.155z M494.664,378.842l-11.558-11.558V129.446l11.558-11.558V378.842z"/>
	</g>
</g>
<g>
	<g>
		<path d="M418.157,282.267c-12.738-12.736-33.46-12.736-46.197,0c-12.735,12.736-12.735,33.459,0,46.196
			c6.369,6.368,14.734,9.552,23.098,9.552s16.73-3.184,23.099-9.552C430.893,315.726,430.893,295.003,418.157,282.267z
			 M405.898,316.203c-5.976,5.976-15.701,5.978-21.677,0c-5.978-5.976-5.978-15.701,0-21.679c2.989-2.989,6.913-4.482,10.839-4.482
			c3.925,0,7.851,1.494,10.839,4.482C411.876,300.501,411.876,310.227,405.898,316.203z"/>
	</g>
</g>
<g>
	<g>
		<path d="M333.436,165.746H178.564c-4.787,0-8.668,3.881-8.668,8.668c0,4.787,3.881,8.668,8.668,8.668h154.871
			c4.788,0,8.668-3.881,8.668-8.668C342.104,169.627,338.224,165.746,333.436,165.746z"/>
	</g>
</g>
<g>
	<g>
		<path d="M309.165,232.78h-106.33c-4.787,0-8.668,3.881-8.668,8.668c0,4.787,3.881,8.668,8.668,8.668h106.33
			c4.788,0,8.668-3.881,8.668-8.668C317.833,236.661,313.953,232.78,309.165,232.78z"/>
	</g>
</g>
<g>
	<g>
		<path d="M363.485,198.107H148.515c-4.787,0-8.668,3.881-8.668,8.668c0,4.787,3.881,8.668,8.668,8.668h214.971
			c4.788,0,8.668-3.881,8.668-8.668C372.154,201.988,368.274,198.107,363.485,198.107z"/>
	</g>
</g>
<g>
	<g>
		<path d="M216.704,312.51h-68.19c-4.787,0-8.668,3.881-8.668,8.668c0,4.787,3.881,8.668,8.668,8.668h68.19
			c4.787,0,8.668-3.881,8.668-8.668C225.372,316.391,221.491,312.51,216.704,312.51z"/>
	</g>
</g>
</svg>