<?xml version="1.0" encoding="iso-8859-1"?>
<!-- Uploaded to: SVG Repo, www.svgrepo.com, Generator: SVG Repo Mixer Tools -->
<svg fill="#000000" height="800px" width="800px" version="1.1" id="Layer_1" xmlns="http://www.w3.org/2000/svg" xmlns:xlink="http://www.w3.org/1999/xlink" 
	 viewBox="0 0 496 496" xml:space="preserve">
<g>
	<g>
		<path d="M496,286.216c0-28.064-15.984-52.624-40-64.48V96c0-52.936-43.064-96-96-96c-52.936,0-96,43.064-96,96v9.456
			c-10.12-1.728-20.64-1.912-31.216-0.272c-0.568,0.088-1.128,0.24-1.696,0.336C231.64,102.384,232,99.216,232,96V64
			c0-12.656-9.84-23.056-22.28-23.936C193.544,15.232,165.712,0,136,0C87.48,0,48,39.48,48,88v8c0,18.28,9.128,35.352,24,45.768
			v0.456c0,20.16,9.392,38.144,24,49.88v17.128L60.168,215.2C25.304,221,0,250.872,0,286.216V352h141.504
			C114.264,362.696,96,388.848,96,418.912V496h304v-77.088c0-30.064-18.264-56.216-45.504-66.912H496V286.216z M280,96
			c0-44.112,35.888-80,80-80s80,35.888,80,80v120.08c-1.384-0.312-2.752-0.648-4.168-0.888L400,209.224v-17.128
			c14.608-11.744,24-29.72,24-49.88l-0.056-50.688L412.6,96.752C412.44,96.832,396.456,104,360,104s-52.44-7.168-52.536-7.208
			L296,91.296v25.656c-5.08-2.936-10.456-5.344-16-7.312V96z M331.344,152.496c-5.2-9.128-11.784-17.12-19.344-23.896v-13.64
			c9.512,2.392,25.2,5.04,48,5.04s38.488-2.648,48-5.04v27.256c0,26.472-21.528,48-48,48c-2.68,0-5.344-0.296-8-0.752V177.68
			C352,165.24,343.112,154.848,331.344,152.496z M345.04,241.824C349.488,231.192,352,219.736,352,208v-2.36
			c2.656,0.336,5.328,0.584,8,0.584c8.488,0,16.584-1.696,24-4.712v13.2l-24,72L345.04,241.824z M345.696,294.392l-21.912-21.912
			c3.944-3.664,7.44-7.704,10.616-11.984L345.696,294.392z M397.432,225.008l12.64,2.104l5.24,26.256l-41.008,41.016
			L397.432,225.008z M235.216,120.992c34.488-5.344,68.192,11.832,83.968,42.648l2.24,4.36h4.888c5.344,0,9.688,4.344,9.688,9.68
			V208c0,16.512-5.824,32.448-16.008,45.136l-0.04-49.08l-11.056,4.568C308.72,208.704,290.552,216,248,216
			s-60.72-7.296-60.848-7.352L176,203.872v30.696c-6.472-13.448-9.184-28.576-7.48-43.808
			C172.44,155.688,200.488,126.352,235.216,120.992z M158.632,234.528c1.808,4.672,3.904,9.232,6.432,13.584l-14.112-8.472
			L158.632,234.528z M136.28,230.2L112,212v-10.496c7.416,3.016,15.512,4.712,24,4.712c5.536,0,10.96-0.792,16.248-2.2
			c0.216,4.864,0.736,9.688,1.672,14.424L136.28,230.2z M168.904,269.064l7.84,4.704c2.36,17.296,10.864,32.616,23.256,43.744V336
			h-32.936l-6.76-54.04L168.904,269.064z M206.024,352.672l27.992,22.392l-23.592,14.16l-21.704-32.56L206.024,352.672z
			 M216,340.152V328.4c9.656,4.816,20.496,7.6,32,7.6c11.504,0,22.344-2.776,32-7.6v11.752l-32,25.6L216,340.152z M289.976,352.664
			l17.304,3.992l-21.704,32.56l-23.592-14.16L289.976,352.664z M248,320c-30.872,0-56-25.128-56-56v-37.328
			c10.456,2.44,28.616,5.328,56,5.328c27.384,0,45.544-2.888,56-5.328V264C304,294.872,278.872,320,248,320z M72,91.296v28.584
			c-5.088-6.808-8-15.16-8-23.88v-8c0-39.704,32.296-72,72-72c25.552,0,49.424,13.8,62.288,36.008L200.6,56h7.4c4.416,0,8,3.584,8,8
			v32c0,5.016-1.008,9.904-2.88,14.608c-4.552,1.8-8.936,3.952-13.136,6.416l-0.032-25.488l-11.344,5.224
			C188.44,96.832,172.456,104,136,104s-52.44-7.168-52.536-7.208L72,91.296z M88,142.216V114.96c9.512,2.392,25.2,5.04,48,5.04
			s38.488-2.648,48-5.04v13.72c-16.6,14.984-28.04,35.616-31.08,58.368c-5.44,2.072-11.104,3.176-16.92,3.176
			C109.528,190.216,88,168.688,88,142.216z M101.936,224.448l19.744,14.808l-22.936,13.768l-15.296-25.488L101.936,224.448z
			 M104.936,336H64v-24H48v24H16v-49.784c0-27.496,19.68-50.728,46.792-55.24l3.696-0.616l26.768,44.616l9.84-5.904l8.592,12.888
			L104.936,336z M121.056,336l7.24-57.96l-11.472-17.208L136,249.328l19.168,11.496l-11.472,17.208l7.24,57.968H121.056z
			 M216.84,480H160v-40h-16v40h-32v-61.088c0-26.232,17.848-48.672,43.408-54.56l16.648-3.84l33.52,50.272l9.52-5.712l8.632,12.944
			L216.84,480z M263.064,480h-30.12l7.336-66.016l-11.44-17.16L248,385.328l19.168,11.496l-11.44,17.16L263.064,480z M384,418.912
			V480h-32v-40h-16v40h-56.84l-6.888-61.984l8.632-12.944l9.52,5.712l33.52-50.272l16.648,3.84
			C366.152,370.24,384,392.68,384,418.912z M480,336h-32v-24h-16v24H296v-18.488c9.032-8.112,16-18.448,20.04-30.168L360,331.312
			l72.688-72.68l-5.744-28.704l6.264,1.048c27.112,4.52,46.792,27.752,46.792,55.24V336z"/>
	</g>
</g>
</svg>